<?xml version="1.0" encoding="UTF-8"?>
<svg id="Layer_1" data-name="Layer 1" xmlns="http://www.w3.org/2000/svg" version="1.1" viewBox="0 0 63 56">
  <defs>
    <style>
      .cls-1 {
        fill: #000;
        stroke-width: 0px;
      }
    </style>
  </defs>
  <path class="cls-1" d="M24.34,51.84c-.13-.19-.32-.35-.38-.56-.14-.48.21-.85.78-.86,1.15,0,2.31,0,3.46,0,.75,0,1.04-.28,1.04-1.03,0-1.07,0-2.15,0-3.22,0-.3-.06-.43-.39-.51-1.24-.29-2.02-1.12-2.42-2.3-.46-1.34-.9-2.69-1.33-4.04-.1-.32-.26-.49-.58-.6-2.93-1.02-5.3-2.77-6.96-5.42-1.61-2.57-2.2-5.37-1.89-8.38.25-2.48.47-4.97.7-7.45.01-.13,0-.25.04-.38.09-.41.39-.64.78-.6.38.04.65.33.62.75-.06.91-.15,1.82-.24,2.74-.18,1.9-.36,3.8-.54,5.78.11-.08.18-.11.22-.16,1.67-1.86,3.8-2.8,6.22-3.24,1.05-.19,2.11-.41,3.11-.77.61-.22,1.12-.72,1.66-1.12.2-.15.2-.38.05-.63-1.84-3.29-3.65-6.6-5.51-9.88-1.08-1.91-2.79-2.88-4.98-2.93-1.22-.03-2.22.89-2.32,2.11-.01.15.1.41.22.46,1.39.57,2.21,1.59,2.46,3.06,0,.05.03.09.05.13,1.09-.1,1.73-1.21,1.25-2.17-.03-.06-.07-.11-.09-.17-.18-.4-.07-.79.29-.98.34-.18.69-.08.94.28.85,1.21.55,3.05-.82,3.87-.99.59-2.12,1-3.24,1.29-.93.24-1.77-.23-2.35-1.01-.59-.8-.69-1.67-.3-2.6.06-.14.14-.28.25-.5-.49,0-.94,0-1.38,0-.64,0-.98-.24-.99-.7,0-.47.34-.72,1.01-.73.41,0,.82,0,1.19,0,.13-.58.26-1.11.4-1.71-.2-.16-.45-.35-.69-.55-.36-.31-.42-.72-.16-1.04.25-.3.65-.34,1.02-.08.24.17.47.36.72.55.19-.14.37-.27.57-.41-.16-.36-.32-.7-.46-1.05-.17-.42-.03-.8.32-.97.38-.18.76-.03.98.39.09.18.16.38.25.56.31.68.14.54.92.48,0-.45,0-.9,0-1.35,0-.58.29-.92.74-.9.43.02.67.33.68.91,0,.49,0,.98,0,1.45q.69.32,1.07-.31c.1-.16.19-.33.3-.48.25-.32.58-.38.93-.18.34.2.44.53.27.9-.14.3-.32.58-.5.88.06.05.12.11.18.15,1.15.7,2.01,1.66,2.66,2.83,1.73,3.13,3.48,6.26,5.21,9.4.17.3.35.42.7.41,1.34-.05,2.7.08,4.02-.12,3.43-.53,5.79-3.37,5.79-6.86,0-1.24.14-2.42.82-3.49,1.29-2.04,3.9-2.97,6.18-2.18,1.1.38,1.8,1.12,1.97,2.32.03.19.2.38.35.52.89.81,1.59,1.74,1.4,3-.1.65.08,1.14.34,1.69.68,1.43.94,2.88.1,4.35-.08.13-.03.36.01.53.44,1.58.31,3.06-.76,4.38-.1.12-.09.34-.1.52-.03.75.06,1.53-.1,2.25-.39,1.71-1.65,2.58-3.27,3-1.75.45-3.51.34-5.27.06-.18-.03-.43-.02-.57.08-2.15,1.56-4.55,1.84-7.09,1.44-2.03-.32-3.92-1.07-5.7-2.08-.01,0-.03-.02-.04-.03-.47-.29-.63-.68-.42-1.05.21-.38.62-.43,1.11-.19.89.43,1.78.89,2.7,1.25,1.37.54,2.81.84,4.3.84,2.55,0,4.53-1.05,6.01-3.12.16-.23.3-.48.48-.71.25-.32.57-.39.93-.19.34.19.46.59.25.94-.3.5-.64.97-1,1.51,1.65.18,3.26.27,4.79-.44,1.14-.52,1.66-1.56,1.5-2.83-.53.18-1.05.4-1.59.54-.38.11-.7-.06-.82-.45-.11-.38.01-.69.38-.86.11-.05.25-.06.36-.12.58-.31,1.21-.56,1.72-.96.92-.72,1.24-1.95.89-2.98-.36.16-.71.34-1.08.48-.45.17-.84,0-.98-.39-.14-.39.03-.76.48-.94.99-.39,1.78-.97,1.95-2.11.11-.78-.14-1.48-.47-2.18-.45.38-.85.75-1.29,1.08-.41.31-.83.25-1.08-.1-.25-.35-.14-.71.26-1.06.44-.38.89-.77,1.24-1.23.71-.93.58-1.83-.24-2.59-.48.37-.92.77-1.42,1.07-.46.28-.91.13-1.1-.26-.19-.39,0-.76.49-1.02.66-.34,1-.9.92-1.56-.08-.69-.59-.97-1.17-1.14-2.44-.69-4.87,1.09-4.92,3.63-.02,1.27-.09,2.52-.54,3.73-1.2,3.19-4.18,5.33-7.58,5.41-1.03.02-2.05,0-3.08.02-.16,0-.38.1-.45.22-.45.81-1.14,1.34-1.95,1.74-1.3.66-2.72.89-4.13,1.14-2.31.4-4.27,1.4-5.72,3.3-.57.74-.74,1.47-.45,2.41,1.14,3.68,3.45,6.25,7.03,7.67.97.38,1.94.77,2.91,1.14,1.43.55,2.38,1.56,2.86,3.02.19.58.37,1.17.59,1.75.31.82,1.01,1.3,1.81,1.28.83-.03,1.49-.56,1.76-1.41.46-1.45,1.02-1.88,2.57-1.96,2.76-.14,5.21-1.18,7.37-2.8,2.09-1.57,3.06-3.8,3.16-6.4,0-.06,0-.13,0-.19,0-.72.25-1.07.73-1.05.47.02.71.37.69,1.05-.14,4.19-2.1,7.21-5.86,9.06-1.6.79-3.25,1.48-5.05,1.67-.47.05-.94.07-1.42.11-.39.03-.65.24-.75.62-.31,1.24-1.01,2.12-2.23,2.56-.1.04-.19.24-.19.36-.02.99-.02,1.99,0,2.99,0,.15.13.35.26.44.46.34.94.64,1.41.96.75.5.79.87.17,1.49h-.57c-.52-.37-1.04-.73-1.59-1.12-.38.63-.93.92-1.54,1.12h-7.2ZM30.66,50.39c1.06.08,1.3-.13,1.3-1.26,0-1.02,0-2.05,0-3.07,0-.13-.07-.33-.16-.38-.88-.46-1.13-.3-1.13.67,0,.17,0,.35,0,.52v3.52ZM29.74,44.3c-.34-.96-.66-1.92-1.02-2.88-.35-.92-1.03-1.5-2.06-1.85.45,1.3.82,2.51,1.28,3.69.31.78,1.04,1.14,1.79,1.04ZM16.73,13.4c.05-.82-.18-1.44-.66-1.93-.23-.24-.41-.21-.63,0-.4.4-.49.98-.2,1.47.3.51.86.68,1.49.46Z"/>
  <path class="cls-1" d="M17.79,7.86c.39,0,.7.35.68.75-.02.38-.33.67-.71.67-.38,0-.69-.32-.7-.69,0-.38.34-.73.72-.72Z"/>
</svg>